<svg width="500" height="500" viewBox="0 0 500 500" fill="none" xmlns="http://www.w3.org/2000/svg">
<path opacity="0.7" d="M99.67 433.12C182.17 477.86 315.93 477.87 398.43 433.12C480.93 388.37 480.93 315.81 398.43 271.06C315.93 226.31 182.17 226.31 99.67 271.06C17.17 315.81 17.16 388.37 99.67 433.12Z" fill="#F0F0F0"/>
<path d="M150.39 332.73C181.887 332.73 207.42 320.561 207.42 305.55C207.42 290.539 181.887 278.37 150.39 278.37C118.893 278.37 93.36 290.539 93.36 305.55C93.36 320.561 118.893 332.73 150.39 332.73Z" fill="#E0E0E0"/>
<path d="M78.72 303.78L85.13 300.12C85.13 300.12 88.21 283.18 85.91 268.62C82.67 248.14 68.73 241.08 63.67 243.11C58.61 245.14 57.42 251.21 66.56 263.04C72 270 78.9 284.78 78.72 303.78Z" fill="#E89E64"/>
<g opacity="0.1">
<path opacity="0.1" d="M78.72 303.78L85.13 300.12C85.13 300.12 88.21 283.18 85.91 268.62C82.67 248.14 68.73 241.08 63.67 243.11C58.61 245.14 57.42 251.21 66.56 263.04C72 270 78.9 284.78 78.72 303.78Z" fill="black"/>
</g>
<path d="M81.05 295.65H81C80.8805 295.63 80.7733 295.565 80.7006 295.468C80.628 295.371 80.5955 295.25 80.61 295.13C83.24 276 75.53 255 66.87 246.5C66.7877 246.414 66.742 246.299 66.7424 246.18C66.7428 246.061 66.7894 245.947 66.8722 245.862C66.955 245.776 67.0678 245.726 67.1867 245.722C67.3056 245.718 67.4215 245.76 67.51 245.84C76.33 254.46 84.19 275.84 81.51 295.26C81.4931 295.37 81.4373 295.469 81.3528 295.541C81.2683 295.613 81.1608 295.651 81.05 295.65Z" fill="white"/>
<path d="M60.94 314.06C59.94 314.64 57.84 313.37 57.04 312.83C55.6693 311.895 54.5608 310.625 53.82 309.14C52.9988 307.453 52.7193 305.552 53.02 303.7C53.1801 302.721 53.4107 301.755 53.71 300.81L54.52 298C54.8434 297.093 54.9828 296.131 54.93 295.17C54.68 293.25 52.93 291.9 51.43 290.74C49.71 289.46 47.93 287.74 47.94 285.45C48.0553 283.66 48.7584 281.959 49.94 280.61C51.04 279.21 52.35 277.98 53.35 276.5C54.1337 275.47 54.546 274.204 54.52 272.91C54.4085 272.115 54.14 271.35 53.73 270.66C52.793 269.229 51.9737 267.724 51.28 266.16C50.71 264.54 50.79 262.53 52.06 261.37C52.6256 260.944 53.2711 260.635 53.9583 260.463C54.6455 260.292 55.3603 260.26 56.06 260.37C57.3739 260.526 58.6372 260.97 59.76 261.67C63.43 263.67 65.53 268.05 69.42 269.67C70.9693 270.146 72.5454 270.53 74.14 270.82C74.9318 270.967 75.6842 271.278 76.3489 271.732C77.0136 272.187 77.576 272.775 78 273.46C79.43 276.32 76.78 279.83 77.79 282.87C78.68 285.55 81.28 286.57 82.79 288.99C83.3832 290.058 83.6214 291.287 83.47 292.5C83.3487 294.553 82.8503 296.567 82 298.44C81.0451 300.297 79.9556 302.082 78.74 303.78C78.66 303.84 61.09 314 60.94 314.06Z" fill="#E89E64"/>
<path d="M71.34 308.51C71.28 308.509 71.2209 308.495 71.1661 308.471C71.1113 308.447 71.062 308.411 71.021 308.368C70.98 308.324 70.9482 308.272 70.9274 308.216C70.9066 308.16 70.8973 308.1 70.9 308.04C71.65 289.89 63.1 269.86 56.9 264.04C56.8566 263.999 56.8217 263.95 56.7973 263.896C56.7728 263.842 56.7593 263.784 56.7574 263.724C56.7556 263.665 56.7654 263.606 56.7865 263.55C56.8075 263.494 56.8393 263.443 56.88 263.4C56.9207 263.357 56.9695 263.322 57.0237 263.297C57.0779 263.273 57.1364 263.259 57.1958 263.257C57.2553 263.256 57.3145 263.265 57.3701 263.287C57.4257 263.308 57.4766 263.339 57.52 263.38C63.86 269.31 72.59 289.68 71.82 308.07C71.8188 308.131 71.8052 308.191 71.7801 308.246C71.7551 308.302 71.719 308.352 71.6741 308.393C71.6293 308.434 71.5765 308.465 71.5191 308.486C71.4616 308.506 71.4007 308.514 71.34 308.51Z" fill="white"/>
<path d="M68.63 287.08H68.49C64.1902 285.895 59.7742 285.18 55.32 284.95C55.2109 284.934 55.1113 284.879 55.0392 284.795C54.9672 284.712 54.9276 284.605 54.9276 284.495C54.9276 284.385 54.9672 284.278 55.0392 284.195C55.1113 284.111 55.2109 284.056 55.32 284.04C59.8517 284.272 64.3448 284.997 68.72 286.2C68.8251 286.232 68.9153 286.301 68.9742 286.393C69.0331 286.486 69.0569 286.597 69.0411 286.706C69.0254 286.815 68.9713 286.914 68.8885 286.986C68.8058 287.059 68.6999 287.099 68.59 287.1L68.63 287.08Z" fill="white"/>
<path d="M391.77 396.11C395.22 388.61 407.77 375.57 420.02 369.41C432.27 363.25 447.76 361.75 455.09 368.71C461.91 375.19 456.16 385.4 443.09 387.93C430.02 390.46 411.23 392.52 401.33 402.7L385.42 413.46L391.77 396.11Z" fill="#E89E64"/>
<path opacity="0.1" d="M391.77 396.11C395.22 388.61 407.77 375.57 420.02 369.41C432.27 363.25 447.76 361.75 455.09 368.71C461.91 375.19 456.16 385.4 443.09 387.93C430.02 390.46 411.23 392.52 401.33 402.7L385.42 413.46L391.77 396.11Z" fill="black"/>
<path d="M386.51 406.11C386.634 406.155 386.769 406.159 386.895 406.121C387.021 406.084 387.132 406.006 387.21 405.9C403.98 382.61 434.21 371.32 448.73 372.41C448.89 372.421 449.048 372.368 449.17 372.264C449.292 372.159 449.367 372.01 449.38 371.85C449.385 371.771 449.375 371.692 449.35 371.617C449.325 371.542 449.285 371.473 449.233 371.414C449.181 371.354 449.118 371.306 449.047 371.271C448.976 371.236 448.899 371.215 448.82 371.21C434.04 370.09 403.25 381.55 386.23 405.21C386.184 405.274 386.151 405.347 386.133 405.424C386.115 405.501 386.112 405.581 386.125 405.659C386.138 405.737 386.166 405.812 386.208 405.879C386.251 405.946 386.305 406.004 386.37 406.05C386.412 406.079 386.46 406.099 386.51 406.11Z" fill="white"/>
<path d="M382.81 424.24C385.95 420.58 394.29 415.99 405.25 414.07C417.38 411.94 430.37 414.37 435.33 410.66C441.28 406.2 438.85 398.29 428.86 395.12C418.87 391.95 396.3 397.22 384.72 415.43L382.81 424.24Z" fill="#E89E64"/>
<path d="M383 419C383.11 419.04 383.229 419.047 383.342 419.02C383.456 418.994 383.559 418.935 383.64 418.85C401.55 400.53 421.81 400.52 430.02 403.07C430.095 403.093 430.175 403.101 430.253 403.094C430.332 403.086 430.408 403.063 430.478 403.026C430.548 402.989 430.609 402.938 430.659 402.877C430.71 402.816 430.747 402.746 430.77 402.67C430.795 402.595 430.804 402.516 430.798 402.438C430.792 402.359 430.77 402.283 430.733 402.213C430.697 402.143 430.647 402.081 430.586 402.031C430.526 401.98 430.455 401.943 430.38 401.92C421.3 399.1 401.06 399.31 382.77 418.01C382.714 418.066 382.67 418.132 382.639 418.205C382.609 418.278 382.594 418.356 382.594 418.435C382.594 418.514 382.609 418.592 382.639 418.665C382.67 418.738 382.714 418.804 382.77 418.86C382.835 418.924 382.914 418.972 383 419Z" fill="white"/>
<path d="M201.24 330.23L212.98 337L209.07 339.26H224.71V330.23L220.8 332.49L209.07 325.71L201.24 330.23Z" fill="#E89E64"/>
<path d="M231.54 344.17C231.371 344.171 231.205 344.126 231.06 344.04L228.14 342.35C227.928 342.216 227.774 342.006 227.709 341.763C227.644 341.521 227.673 341.262 227.79 341.04C227.923 340.823 228.134 340.666 228.379 340.599C228.624 340.532 228.885 340.561 229.11 340.68L232.03 342.37C232.193 342.49 232.315 342.656 232.381 342.846C232.448 343.037 232.455 343.243 232.402 343.438C232.349 343.633 232.238 343.807 232.084 343.938C231.931 344.068 231.741 344.149 231.54 344.17Z" fill="#E89E64"/>
<path d="M354.57 415.2C354.401 415.201 354.235 415.156 354.09 415.07L348.46 411.82C348.298 411.663 348.195 411.456 348.166 411.233C348.136 411.009 348.183 410.783 348.299 410.589C348.415 410.396 348.592 410.247 348.803 410.168C349.014 410.088 349.245 410.082 349.46 410.15L355.08 413.4C355.242 413.519 355.365 413.684 355.432 413.874C355.498 414.064 355.507 414.269 355.455 414.464C355.403 414.658 355.294 414.833 355.141 414.964C354.989 415.095 354.8 415.178 354.6 415.2H354.57ZM340.9 407.3C340.732 407.301 340.567 407.26 340.42 407.18L334.79 403.93C334.646 403.884 334.515 403.807 334.405 403.703C334.296 403.599 334.211 403.472 334.158 403.331C334.104 403.19 334.083 403.038 334.097 402.888C334.11 402.738 334.157 402.593 334.235 402.463C334.312 402.334 334.418 402.224 334.544 402.141C334.671 402.058 334.814 402.005 334.963 401.985C335.113 401.966 335.265 401.98 335.408 402.028C335.551 402.076 335.682 402.155 335.79 402.26L341.42 405.51C341.579 405.631 341.698 405.796 341.762 405.985C341.827 406.174 341.833 406.378 341.78 406.571C341.727 406.763 341.618 406.935 341.467 407.065C341.315 407.195 341.128 407.277 340.93 407.3H340.9ZM327.23 399.41C327.061 399.411 326.895 399.366 326.75 399.28L321.12 396C320.908 395.866 320.754 395.656 320.689 395.413C320.624 395.171 320.653 394.912 320.77 394.69C320.905 394.475 321.116 394.32 321.361 394.255C321.606 394.19 321.867 394.22 322.09 394.34L327.72 397.59C327.879 397.711 327.998 397.876 328.062 398.065C328.127 398.254 328.133 398.458 328.08 398.651C328.027 398.843 327.918 399.015 327.767 399.145C327.615 399.275 327.428 399.357 327.23 399.38V399.41ZM313.56 391.52C313.391 391.521 313.225 391.476 313.08 391.39L307.45 388.14C307.238 388.006 307.084 387.796 307.019 387.553C306.954 387.311 306.983 387.052 307.1 386.83C307.233 386.613 307.444 386.456 307.689 386.389C307.934 386.322 308.195 386.351 308.42 386.47L314.04 389.72C314.202 389.839 314.325 390.004 314.392 390.194C314.458 390.384 314.466 390.589 314.415 390.784C314.363 390.978 314.253 391.153 314.101 391.284C313.949 391.415 313.76 391.498 313.56 391.52ZM299.89 383.63C299.721 383.631 299.555 383.586 299.41 383.5L293.78 380.25C293.618 380.093 293.515 379.886 293.486 379.663C293.456 379.439 293.503 379.213 293.619 379.019C293.735 378.826 293.912 378.677 294.123 378.598C294.334 378.518 294.565 378.512 294.78 378.58L300.41 381.83C300.625 381.965 300.78 382.176 300.845 382.421C300.91 382.666 300.88 382.927 300.76 383.15C300.669 383.299 300.541 383.422 300.389 383.506C300.236 383.59 300.064 383.633 299.89 383.63ZM286.22 375.74C286.052 375.738 285.886 375.693 285.74 375.61L280.11 372.36C279.966 372.314 279.835 372.237 279.725 372.133C279.616 372.029 279.531 371.902 279.478 371.761C279.424 371.62 279.403 371.468 279.417 371.318C279.43 371.168 279.477 371.023 279.555 370.893C279.632 370.764 279.738 370.654 279.864 370.571C279.991 370.488 280.134 370.435 280.283 370.415C280.433 370.396 280.585 370.41 280.728 370.458C280.871 370.506 281.002 370.585 281.11 370.69L286.74 373.94C286.952 374.074 287.106 374.284 287.171 374.527C287.236 374.769 287.207 375.028 287.09 375.25C287.001 375.401 286.873 375.525 286.721 375.611C286.568 375.697 286.395 375.742 286.22 375.74ZM272.55 367.84C272.382 367.841 272.217 367.8 272.07 367.72L266.44 364.47C266.278 364.313 266.175 364.106 266.146 363.883C266.116 363.659 266.163 363.433 266.279 363.239C266.395 363.046 266.572 362.897 266.783 362.818C266.994 362.738 267.225 362.732 267.44 362.8L273.07 366.05C273.229 366.171 273.348 366.336 273.412 366.525C273.477 366.714 273.483 366.918 273.43 367.111C273.377 367.303 273.268 367.475 273.117 367.605C272.965 367.735 272.778 367.817 272.58 367.84H272.55ZM258.88 360C258.711 360.001 258.545 359.956 258.4 359.87L252.77 356.62C252.558 356.486 252.404 356.276 252.339 356.033C252.274 355.791 252.303 355.532 252.42 355.31C252.553 355.094 252.764 354.936 253.009 354.869C253.254 354.802 253.515 354.831 253.74 354.95L259.37 358.2C259.533 358.32 259.655 358.486 259.721 358.676C259.788 358.867 259.795 359.073 259.742 359.268C259.689 359.463 259.578 359.637 259.424 359.768C259.271 359.898 259.081 359.979 258.88 360ZM245.21 352.11C245.041 352.111 244.875 352.066 244.73 351.98L239.1 348.73C238.938 348.573 238.835 348.366 238.806 348.143C238.776 347.919 238.823 347.693 238.939 347.499C239.055 347.306 239.232 347.157 239.443 347.078C239.654 346.998 239.885 346.992 240.1 347.06L245.73 350.31C245.945 350.445 246.1 350.656 246.165 350.901C246.23 351.146 246.2 351.407 246.08 351.63C245.983 351.77 245.853 351.882 245.701 351.958C245.548 352.033 245.38 352.068 245.21 352.06V352.11Z" fill="#E89E64"/>
<path d="M365.53 421.52C365.362 421.521 365.197 421.48 365.05 421.4L362.13 419.71C361.918 419.576 361.764 419.366 361.699 419.123C361.634 418.881 361.663 418.622 361.78 418.4C361.913 418.183 362.124 418.026 362.369 417.959C362.614 417.892 362.875 417.921 363.1 418.04L366.01 419.73C366.169 419.85 366.288 420.015 366.353 420.203C366.417 420.391 366.424 420.594 366.373 420.787C366.321 420.979 366.213 421.151 366.063 421.282C365.913 421.413 365.727 421.495 365.53 421.52Z" fill="#E89E64"/>
<path d="M429.3 169.32L428.4 168.8L400.46 152.8C393.995 148.523 386.391 146.296 378.64 146.41C368.87 146.41 359.01 149.95 347.4 156.41C306.83 178.89 272.17 243.71 272.17 286.27V298C272.17 349.58 340.01 412.54 340.01 412.54L368.14 428.79C368.153 428.809 368.171 428.824 368.193 428.833C368.214 428.842 368.237 428.844 368.26 428.84C367.32 427.73 398.15 382.75 427.26 295.01C459.4 197.85 429.9 169.88 429.3 169.32ZM381.82 323.54C358.82 336.81 339.59 329.86 334.14 308.45C323.61 307 316 298.9 313.65 285.6C310.7 242.6 333.52 208.41 366.2 194.53C380.2 189.44 391.88 193.07 398.14 203.59C417.34 200.29 431.08 213.45 431.08 238.23C431.08 269.63 409 307.85 381.82 323.54Z" fill="#455A64"/>
<path d="M431.08 238.23C431.08 269.63 409.03 307.85 381.82 323.54C358.82 336.81 339.59 329.86 334.14 308.45C341.05 309.45 349.21 307.6 357.98 302.53C382.9 288.16 403.08 253.18 403.08 224.44C403.08 215.9 401.3 208.87 398.14 203.59C417.34 200.29 431.08 213.45 431.08 238.23Z" fill="#263238"/>
<path d="M343.44 305.45L359.07 314.48V284.2L343.44 275.17V305.45Z" fill="#E89E64"/>
<path opacity="0.2" d="M343.44 305.45L359.07 314.48V284.2L343.44 275.17V305.45Z" fill="black"/>
<path d="M418.03 250.16L381.8 233.18L345.57 292L359.07 284.2V314.48L376.19 304.6V284.79L387.4 278.32V298.12L404.54 288.22V257.94L418.03 250.16Z" fill="#E89E64"/>
<path d="M366.16 224.15L381.8 233.18L345.57 292L329.93 282.97L366.16 224.15Z" fill="#E89E64"/>
<path opacity="0.1" d="M366.16 224.15L381.8 233.18L345.57 292L329.93 282.97L366.16 224.15Z" fill="black"/>
<path d="M366.16 224.15L381.8 233.18L418.03 250.16L402.39 241.13L366.16 224.15Z" fill="#E89E64"/>
<path opacity="0.4" d="M366.16 224.15L381.8 233.18L418.03 250.16L402.39 241.13L366.16 224.15Z" fill="white"/>
<path d="M376.19 304.6L387.4 298.12V278.32L376.19 284.79V304.6Z" fill="#E89E64"/>
<path opacity="0.2" d="M376.19 304.6L387.4 298.12V278.32L376.19 284.79V304.6Z" fill="black"/>
<path d="M429.3 169.32L428.4 168.8C414.84 161.18 396.72 162.2 376.81 173.68C346.81 191.03 320.81 227.47 308.52 265.68C303.64 280.83 301.58 288.85 301.58 303.5V315.27C301.58 355.02 345.9 408.49 366.63 427.58C367.093 428.01 367.599 428.392 368.14 428.72C368.153 428.739 368.171 428.754 368.193 428.763C368.214 428.772 368.237 428.774 368.26 428.77C369.47 429.517 370.823 430.003 372.233 430.195C373.642 430.388 375.076 430.283 376.442 429.887C377.808 429.491 379.076 428.814 380.164 427.898C381.252 426.982 382.137 425.848 382.76 424.57C400.62 388 452.7 277.75 452.7 235V223.27C452.7 196.77 443.74 178 429.3 169.32ZM334.14 308.45C333.86 307.36 333.6 306.22 333.4 305.05C332.813 301.77 332.532 298.442 332.56 295.11C332.56 263.71 354.56 225.5 381.82 209.81C384.695 208.145 387.706 206.727 390.82 205.57C393.199 204.686 395.652 204.016 398.15 203.57C417.35 200.27 431.09 213.43 431.09 238.21C431.09 269.61 409.04 307.83 381.83 323.52C358.85 336.81 339.59 329.86 334.14 308.45Z" fill="#37474F"/>
<path d="M180.6 127.58H159.6C155.044 127.58 150.674 125.77 147.452 122.548C144.23 119.326 142.42 114.956 142.42 110.4V105.55C142.42 100.49 144.43 95.6366 148.008 92.0584C151.587 88.4802 156.44 86.47 161.5 86.47C166.56 86.47 171.413 88.4802 174.992 92.0584C178.57 95.6366 180.58 100.49 180.58 105.55L180.6 127.58Z" fill="#263238"/>
<path d="M145.47 96.05L141 93.68C141.141 93.3819 141.341 93.1155 141.589 92.897C141.836 92.6784 142.124 92.5123 142.438 92.4085C142.751 92.3048 143.082 92.2656 143.41 92.2934C143.739 92.3211 144.059 92.4152 144.35 92.57C144.948 92.8953 145.398 93.4381 145.606 94.086C145.815 94.7338 145.766 95.4371 145.47 96.05Z" fill="#263238"/>
<path d="M145.84 96.55L141.14 98.31C141.009 98.0076 140.941 97.6817 140.939 97.3521C140.937 97.0225 141.002 96.696 141.131 96.3923C141.259 96.0885 141.447 95.8139 141.684 95.5849C141.921 95.356 142.202 95.1774 142.51 95.06C143.15 94.8371 143.852 94.8673 144.471 95.1442C145.09 95.4211 145.579 95.924 145.84 96.55Z" fill="#263238"/>
<path d="M187.56 151.93L193.34 162.52L185.31 169.41L177.28 156.96L187.56 151.93Z" fill="#9A4A4D"/>
<path d="M171.4 129.21C174.4 129.47 177.56 130.76 179.73 135.21L188.73 153.69C188.73 153.69 187.21 159.77 179.29 160.58L176.15 155.76L171.4 129.21Z" fill="#E89E64"/>
<path opacity="0.1" d="M171.4 129.21C174.4 129.47 177.56 130.76 179.73 135.21L188.73 153.69C188.73 153.69 187.21 159.77 179.29 160.58L176.15 155.76L171.4 129.21Z" fill="black"/>
<path d="M118 274.6C116.49 273.82 115.54 275.73 114.17 277.27C113.17 278.34 111.72 280.05 111.5 281.27C111.17 283.09 112.81 285.94 114.62 287.52C116.43 289.1 118.53 290.22 119.19 293.67C119.85 297.12 121.19 299.17 124.77 300.72C128.69 302.41 133.94 301.87 135.72 300.72C137.83 299.35 135.9 297.86 132.95 293.63C129.09 288.11 126.08 284.16 126.08 279.01L118 274.6Z" fill="#263238"/>
<path d="M121.09 270.07L117.92 274.72C117.25 275.685 116.988 276.875 117.19 278.032C117.392 279.189 118.042 280.22 119 280.9L119.1 280.97C120.062 281.548 121.196 281.77 122.305 281.598C123.414 281.426 124.428 280.871 125.17 280.03L130.11 274.63L121.09 270.07Z" fill="#B16668"/>
<path d="M178.06 181.92C178.26 187.84 179.3 209.42 174.98 220.75C172.584 227.183 169.57 233.369 165.98 239.22C164.69 241.43 127.62 277.52 127.62 277.52C127.62 277.52 121.32 277.06 120.32 270.96C120.32 270.96 135.51 245.13 138.8 239.84C142.09 234.55 153.74 226.42 153.74 226.42L152.68 176.77L178.06 181.92Z" fill="#37474F"/>
<path d="M171.119 305.558L178.958 303.775L176.362 292.357L168.522 294.139L171.119 305.558Z" fill="#B16668"/>
<path d="M165 200C167.685 197.521 170.089 194.754 172.17 191.75C178.17 183.47 177.24 176.12 177.24 176.12H174.78L142.37 176.78C139.15 182.05 138.45 190.04 139.54 197.78C141.79 213.93 155.17 241.88 155.17 241.88C154.98 244.09 154.05 253.37 156.17 261.6C159.5 274.6 168.56 296.6 168.56 296.6C168.56 296.6 174.23 297.41 177.05 294.13C177.05 294.13 172.05 249.52 170.68 238.13C169.19 225.71 165 200 165 200Z" fill="#37474F"/>
<path d="M178.08 299.9L177.82 298.78C178.65 298.94 182.17 304.78 185.66 307.32C189.48 310.1 192.8 311.74 194.51 313C196.79 314.67 193.51 318.11 187.86 318.41C185.07 318.56 179.99 317.71 178.42 316.23C176.85 314.75 175.72 312.23 174.48 311.23C173.24 310.23 170.72 309.23 169.87 307.86C169.41 307.11 169.33 305.24 169.39 303.64C169.45 302.04 169.48 300.56 169.99 300.58C169.99 300.75 170.18 301.44 170.18 301.44C171.656 302.186 173.297 302.547 174.95 302.49C176.27 302.41 178.73 302.1 178.08 299.9Z" fill="#263238"/>
<path d="M169.66 230.51C169.66 230.51 165.88 203.66 165 200C165 200 171.66 197.46 173.71 195.14C173.71 195.14 172.25 198.39 167.48 201.28L169.66 230.51Z" fill="#263238"/>
<path d="M149.64 229.47C149.64 229.47 153.54 239.7 155.16 241.91C155.16 241.91 154.75 249.52 154.81 251.06L152.7 252.89C152.7 252.89 152.6 246.5 153.7 242.63C151.774 238.441 150.409 234.016 149.64 229.47Z" fill="#263238"/>
<path d="M176.24 157.89C176.75 162.59 178.06 181.89 178.06 181.89C162.55 190.17 143.31 184.68 140.37 181.27C141.905 175.644 144.911 170.528 149.08 166.45L144.08 152.45C144.08 152.45 143.48 151.01 143.49 151C143.8 150.48 151.3 143.72 147.61 133C147.48 132.611 147.44 132.197 147.493 131.79C147.546 131.383 147.692 130.994 147.919 130.651C148.145 130.309 148.447 130.023 148.801 129.815C149.154 129.607 149.551 129.482 149.96 129.45L154.41 129.09L166.49 128.73C169.37 128.9 171.43 129.17 171.43 129.17C173.28 130.91 176.2 135.66 178.09 140.5C179.28 143.66 180.6 148.65 176.24 157.89Z" fill="#E89E64"/>
<path opacity="0.1" d="M147.29 157.52L149.06 150.67L151.25 166.49L146.82 168.95L149.08 166.48L146.79 160.09L147.29 157.52Z" fill="black"/>
<path d="M173.78 94.78C175.78 95.97 178.29 101.04 178.04 111.66C177.83 120.66 174.91 122.9 173.45 123.54C171.99 124.18 169.16 123.79 166.45 123.33V128.74C166.45 128.74 170.54 136.31 169.62 139.33C167.62 139.67 165.11 138.33 161.56 135.92C158.919 133.948 156.522 131.668 154.42 129.13L154.48 116.7C154.48 116.7 152.86 118.27 150.12 115.87C147.86 113.87 147.12 110.56 148.86 108.76C149.317 108.335 149.869 108.024 150.469 107.853C151.07 107.683 151.703 107.658 152.315 107.78C152.927 107.902 153.502 108.168 153.991 108.556C154.481 108.943 154.871 109.442 155.13 110.01C155.13 110.01 159.52 110.18 165.35 107.01C167.618 105.778 169.563 104.028 171.028 101.903C172.493 99.7784 173.436 97.3378 173.78 94.78Z" fill="#B16668"/>
<path d="M168 109.4C168.004 109.624 167.941 109.844 167.821 110.033C167.7 110.222 167.526 110.371 167.321 110.462C167.116 110.552 166.889 110.58 166.668 110.543C166.447 110.505 166.242 110.403 166.079 110.249C165.916 110.095 165.801 109.897 165.75 109.679C165.699 109.461 165.713 109.232 165.791 109.022C165.869 108.812 166.008 108.629 166.189 108.498C166.37 108.366 166.586 108.29 166.81 108.28C167.116 108.272 167.413 108.385 167.636 108.595C167.859 108.805 167.99 109.094 168 109.4Z" fill="#263238"/>
<g style="mix-blend-mode:multiply" opacity="0.5">
<g style="mix-blend-mode:multiply" opacity="0.5">
<path d="M168.29 117L170.92 117.84C170.872 118.015 170.789 118.179 170.676 118.322C170.563 118.465 170.423 118.584 170.264 118.672C170.104 118.759 169.929 118.814 169.748 118.833C169.567 118.851 169.384 118.833 169.21 118.78C168.856 118.661 168.561 118.408 168.39 118.076C168.218 117.744 168.182 117.358 168.29 117Z" fill="#9A4A4D"/>
</g>
</g>
<path d="M177.27 105.92L175 104.34C175.095 104.185 175.221 104.051 175.37 103.947C175.519 103.843 175.688 103.77 175.866 103.734C176.044 103.697 176.227 103.698 176.405 103.735C176.583 103.772 176.752 103.845 176.9 103.95C177.205 104.166 177.415 104.492 177.484 104.86C177.553 105.228 177.476 105.608 177.27 105.92Z" fill="#263238"/>
<path d="M176.74 108.58C176.752 108.731 176.734 108.884 176.687 109.028C176.639 109.172 176.563 109.306 176.464 109.42C176.364 109.535 176.243 109.628 176.106 109.695C175.97 109.762 175.822 109.801 175.67 109.81C175.435 109.832 175.2 109.783 174.993 109.669C174.786 109.556 174.619 109.383 174.511 109.173C174.404 108.963 174.361 108.726 174.39 108.492C174.418 108.258 174.516 108.038 174.671 107.861C174.826 107.683 175.03 107.555 175.258 107.495C175.486 107.434 175.726 107.443 175.949 107.52C176.171 107.598 176.366 107.74 176.507 107.929C176.648 108.118 176.729 108.345 176.74 108.58Z" fill="#263238"/>
<g style="mix-blend-mode:multiply" opacity="0.5">
<g style="mix-blend-mode:multiply" opacity="0.5">
<path d="M171.4 107.94L171.58 114.75L175.17 113.64L171.4 107.94Z" fill="#9A4A4D"/>
</g>
</g>
<g style="mix-blend-mode:multiply" opacity="0.5">
<g style="mix-blend-mode:multiply" opacity="0.5">
<path d="M166.41 123.33C163.51 122.95 157.55 121.24 156.62 118.88C156.995 120.07 157.724 121.116 158.71 121.88C160.49 123.4 166.41 125.12 166.41 125.12V123.33Z" fill="#9A4A4D"/>
</g>
</g>
<path d="M130.78 174.92C130.85 173.92 132.68 163.55 133.93 157.74L146.15 161.48L144.15 169.63L134 179.46C132.979 179.27 132.072 178.689 131.471 177.842C130.87 176.995 130.622 175.947 130.78 174.92Z" fill="#B16668"/>
<path d="M149.93 129.49C145.24 129.9 139.06 130.6 136.12 143.95C133.36 156.46 132.68 160.83 132.68 160.83C132.68 160.83 136.29 165.4 145.63 164.9L149.06 150.67C155.31 142.44 153.3 136.55 149.93 129.49Z" fill="#E89E64"/>
<path d="M189.44 165.24C191.12 162.12 191.54 161.98 192.53 161.24C193.52 160.5 199.66 159.64 202.2 159.43C205.2 159.18 206.25 159.73 205.42 162.3C203.64 167.8 198.24 179.48 197.03 181.1C196.24 182.1 196.08 183.1 192.72 183.46C189.58 183.77 185.64 183.94 184.48 184.01C183.32 184.08 181.72 184.37 182.76 180.96C184.083 177.103 185.615 173.321 187.35 169.63C188.64 166.87 189.44 165.24 189.44 165.24Z" fill="#263238"/>
<path d="M144.19 169.63C144.19 169.63 171.35 172.5 174.86 171.41C178.37 170.32 183.11 166.8 185.65 165.35C188.19 163.9 190.01 163.77 190.01 164.35C190.01 164.93 187.84 168.28 187.35 169.65C186.86 171.02 189.69 171.02 193.41 170.17C197.13 169.32 198.62 167.17 199.59 168.41C200.56 169.65 197.53 175.86 191.35 178.17C185.17 180.48 180.58 178.95 175.48 179.17C170.38 179.39 141.12 181.67 134.03 179.44C133.851 178.311 133.985 177.155 134.416 176.098C134.848 175.04 135.562 174.121 136.48 173.44C138.772 171.672 141.393 170.377 144.19 169.63Z" fill="#B16668"/>
<path d="M317.79 72.83L325.24 68.53C325.199 68.2284 325.179 67.9244 325.18 67.62V65.46C325.292 63.3742 325.894 61.3441 326.936 59.5339C327.979 57.7237 329.432 56.1842 331.18 55.04C331.701 54.6889 332.288 54.4468 332.905 54.3283C333.521 54.2097 334.156 54.2171 334.77 54.35C335.32 48.89 339.1 42.72 343.7 40.07C348.7 37.2 352.7 39.52 352.7 45.27V48.49C352.681 50.0595 352.425 51.6171 351.94 53.11L358.13 49.54C359.97 48.48 361.46 49.34 361.46 51.47C361.398 52.6272 361.064 53.7535 360.485 54.7577C359.907 55.7619 359.1 56.6157 358.13 57.25L317.79 80.54C315.95 81.6 314.46 80.74 314.46 78.61C314.522 77.4528 314.856 76.3265 315.435 75.3223C316.013 74.3181 316.82 73.4643 317.79 72.83Z" fill="#F0F0F0"/>
<path d="M282.12 122.84L287.74 119.59C287.707 119.361 287.691 119.131 287.69 118.9V117.28C287.776 115.704 288.232 114.17 289.021 112.803C289.81 111.436 290.909 110.274 292.23 109.41C292.623 109.144 293.066 108.961 293.532 108.872C293.997 108.782 294.477 108.789 294.94 108.89C295.218 106.713 295.964 104.622 297.128 102.761C298.291 100.9 299.844 99.3132 301.68 98.11C305.43 95.94 308.48 97.7 308.48 102.03V104.47C308.464 105.653 308.268 106.826 307.9 107.95L312.57 105.26C313.96 104.46 315.09 105.11 315.09 106.71C315.042 107.585 314.789 108.436 314.351 109.195C313.913 109.955 313.303 110.6 312.57 111.08L282.12 128.65C280.73 129.46 279.6 128.81 279.6 127.2C279.647 126.326 279.9 125.476 280.338 124.718C280.776 123.961 281.386 123.317 282.12 122.84Z" fill="#F0F0F0"/>
</svg>
