<svg width="45" height="61" viewBox="0 0 45 61" fill="none" xmlns="http://www.w3.org/2000/svg">
<path d="M22.5 0C16.5326 0 10.8097 2.37053 6.5901 6.5901C2.37053 10.8097 0 16.5326 0 22.5C0 34.9256 22.5 60.1744 22.5 60.1744C22.5 60.1744 45 34.9256 45 22.5C45 16.5326 42.6295 10.8097 38.4099 6.5901C34.1903 2.37053 28.4674 0 22.5 0V0ZM22.5 33.4884C20.3267 33.4884 18.2022 32.8439 16.3952 31.6365C14.5882 30.4291 13.1798 28.7129 12.3481 26.7051C11.5164 24.6972 11.2988 22.4878 11.7228 20.3563C12.1468 18.2247 13.1933 16.2668 14.73 14.73C16.2668 13.1933 18.2247 12.1468 20.3563 11.7228C22.4878 11.2988 24.6972 11.5164 26.7051 12.3481C28.7129 13.1798 30.4291 14.5882 31.6365 16.3952C32.8439 18.2022 33.4884 20.3267 33.4884 22.5C33.4884 25.4143 32.3307 28.2092 30.27 30.27C28.2092 32.3307 25.4143 33.4884 22.5 33.4884V33.4884Z" fill="#E89E64"/>
</svg>
